<?xml version="1.0" encoding="UTF-8" standalone="no"?>
<!-- Created with Inkscape (http://www.inkscape.org/) -->

<svg
   xmlns:dc="http://purl.org/dc/elements/1.1/"
   xmlns:cc="http://creativecommons.org/ns#"
   xmlns:rdf="http://www.w3.org/1999/02/22-rdf-syntax-ns#"
   xmlns:svg="http://www.w3.org/2000/svg"
   xmlns="http://www.w3.org/2000/svg"
   xmlns:sodipodi="http://sodipodi.sourceforge.net/DTD/sodipodi-0.dtd"
   xmlns:inkscape="http://www.inkscape.org/namespaces/inkscape"
   width="746.84003"
   height="837.19"
   id="svg5159"
   version="1.1"
   inkscape:version="0.48.4 r9939"
   sodipodi:docname="level1.svg">
  <defs
     id="defs5161" />
  <sodipodi:namedview
     id="base"
     pagecolor="#ffffff"
     bordercolor="#666666"
     borderopacity="1.0"
     inkscape:pageopacity="0.0"
     inkscape:pageshadow="2"
     inkscape:zoom="0.49497475"
     inkscape:cx="976.30854"
     inkscape:cy="607.57949"
     inkscape:document-units="px"
     inkscape:current-layer="layer1"
     showgrid="false"
     inkscape:window-width="1920"
     inkscape:window-height="1028"
     inkscape:window-x="-8"
     inkscape:window-y="-8"
     inkscape:window-maximized="1" />
  <metadata
     id="metadata5164">
    <rdf:RDF>
      <cc:Work
         rdf:about="">
        <dc:format>image/svg+xml</dc:format>
        <dc:type
           rdf:resource="http://purl.org/dc/dcmitype/StillImage" />
        <dc:title />
      </cc:Work>
    </rdf:RDF>
  </metadata>
  <g
     inkscape:label="Layer 1"
     inkscape:groupmode="layer"
     id="layer1"
     transform="translate(0,-215.17218)">
    <rect
       style="fill:#e3ddc7;fill-opacity:1;fill-rule:nonzero;stroke:none"
       id="rect5131"
       width="744.28571"
       height="837.14288"
       x="1.4285486"
       y="215.2193"
       inkscape:export-filename="C:\Users\Markus\level1.png"
       inkscape:export-xdpi="300"
       inkscape:export-ydpi="300" />
    <path
       style="fill:#cbc0a0;fill-opacity:1;stroke:none"
       d="m 23.233511,444.22059 c 0,0 528.309799,-61.61931 568.715899,-47.47717 40.4061,14.14213 129.29954,19.1929 129.29954,19.1929 l 6.06091,86.87311 c 0,0 -230.31479,37.37565 -240.41631,23.23351 -10.10153,-14.14213 -278.80212,-13.13198 -278.80212,-13.13198 0,0 -175.766549,16.16244 -188.898529,28.28427 -13.1319908,12.12183 4.04061,-96.97464 4.04061,-96.97464 z"
       id="path5137"
       inkscape:connector-curvature="0"
       inkscape:export-filename="C:\Users\Markus\level1.png"
       inkscape:export-xdpi="300"
       inkscape:export-ydpi="300" />
    <path
       inkscape:connector-curvature="0"
       id="path5139"
       d="m 722.24682,689.48461 c 0,0 -139.851,43.43655 -434.14884,-26.26397 -41.97271,-9.94067 -269.799619,-2.0203 -269.799619,-2.0203 l -2.07181,61.6193 c 0,0 223.181049,43.43656 233.368429,29.29442 10.18739,-14.14213 200.35968,1.01016 200.35968,1.01016 0,0 267.16412,-4.04061 280.40773,8.08122 13.2436,12.12183 -8.11557,-71.72083 -8.11557,-71.72083 z"
       style="fill:#9ad5dd;fill-opacity:1;stroke:none"
       sodipodi:nodetypes="csccscsc"
       inkscape:export-filename="C:\Users\Markus\level1.png"
       inkscape:export-xdpi="300"
       inkscape:export-ydpi="300" />
    <path
       style="fill:#666666;stroke:none"
       d="m 25.601501,215.2363 c 0,0 17.778821,192.82185 14.934211,219.08581 -2.844611,26.26397 -22.756891,201.02036 -17.778821,220.21326 4.97807,19.1929 10.66729,68.69037 10.66729,68.69037 0,0 -1.42231,154.55334 -7.82268,205.06097 -6.40038,50.50762 -8.53384,103.03549 -6.40038,108.08629 2.13346,5.0508 0,15.8832 0,15.8832 L 0,1052.2562 0,215.16365 z"
       id="path5133"
       inkscape:connector-curvature="0"
       inkscape:export-filename="C:\Users\Markus\level1.png"
       inkscape:export-xdpi="300"
       inkscape:export-ydpi="300"
       sodipodi:nodetypes="csscsscccc" />
    <path
       inkscape:connector-curvature="0"
       id="path5135"
       d="m 721.2425,1052.2282 c 0,0 -17.77882,-194.65221 -14.93421,-220.91617 2.84462,-26.26397 22.75689,-201.02036 17.77882,-220.21326 -4.97807,-19.1929 -10.66729,-68.69037 -10.66729,-68.69037 0,0 1.42231,-154.55334 7.82268,-205.06097 6.40038,-50.50762 8.53384,-103.03552 6.40038,-108.08632 -2.13346,-5.0508 0,-14.00817 0,-14.00817 l 19.20112,0 0,837.00326 z"
       style="fill:#666666;stroke:none"
       inkscape:export-filename="C:\Users\Markus\level1.png"
       inkscape:export-xdpi="300"
       inkscape:export-ydpi="300"
       sodipodi:nodetypes="csscsscccc" />
    <path
       style="fill:#000000;stroke:none"
       d="m 77.142853,873.79073 c 0,0 94.285727,-51.42857 141.428587,-25.71428 47.14285,25.71428 137.14285,25.71428 137.14285,25.71428 0,0 131.42859,-17.14285 82.85716,82.85715 -48.57144,100.00002 -128.57144,45.71432 -128.57144,45.71432 0,0 -115,-33.57147 -147.14286,-24.28577 -14.84531,4.2887 -92.857147,18.5715 -92.857147,18.5715 -34.285722,17.14287 -57.142863,-95.00005 7.14285,-122.8572 z"
       id="path5141"
       inkscape:connector-curvature="0"
       sodipodi:nodetypes="cscscscc"
       inkscape:export-filename="C:\Users\Markus\level1.png"
       inkscape:export-xdpi="300"
       inkscape:export-ydpi="300" />
    <path
       sodipodi:nodetypes="csscsscccc"
       inkscape:export-ydpi="300"
       inkscape:export-xdpi="300"
       inkscape:export-filename="C:\Users\Markus\level1.png"
       inkscape:connector-curvature="0"
       id="path2988"
       d="m 6.0010193,1026.5305 c 0,0 170.6098107,-17.7788 193.8483007,-14.9342 23.2385,2.8446 177.86389,22.7569 194.84588,17.7788 16.98199,-4.978 60.77761,-10.6673 60.77761,-10.6673 0,0 136.74963,1.4223 181.43904,7.8227 44.68942,6.4004 91.16639,8.5339 95.63536,6.4004 4.46898,-2.1335 14.05352,0 14.05352,0 l 0,19.2011 -740.6639918,0 z"
       style="fill:#666666;stroke:none" />
  </g>
</svg>
