<?xml version="1.0" encoding="UTF-8" standalone="no"?>
<!-- Created with Inkscape (http://www.inkscape.org/) -->

<svg
   xmlns:dc="http://purl.org/dc/elements/1.1/"
   xmlns:cc="http://creativecommons.org/ns#"
   xmlns:rdf="http://www.w3.org/1999/02/22-rdf-syntax-ns#"
   xmlns:svg="http://www.w3.org/2000/svg"
   xmlns="http://www.w3.org/2000/svg"
   xmlns:sodipodi="http://sodipodi.sourceforge.net/DTD/sodipodi-0.dtd"
   xmlns:inkscape="http://www.inkscape.org/namespaces/inkscape"
   width="1028.27"
   height="1076.96"
   id="svg5159"
   version="1.1"
   inkscape:version="0.48.4 r9939"
   sodipodi:docname="level4.svg"
   inkscape:export-filename="D:\Projects\drill-baby-drill\levels\level2.png"
   inkscape:export-xdpi="359.98999"
   inkscape:export-ydpi="359.98999">
  <defs
     id="defs5161" />
  <sodipodi:namedview
     id="base"
     pagecolor="#ffffff"
     bordercolor="#666666"
     borderopacity="1.0"
     inkscape:pageopacity="0.0"
     inkscape:pageshadow="2"
     inkscape:zoom="0.98994949"
     inkscape:cx="729.071"
     inkscape:cy="435.71929"
     inkscape:document-units="px"
     inkscape:current-layer="layer1"
     showgrid="false"
     inkscape:window-width="1920"
     inkscape:window-height="1028"
     inkscape:window-x="-8"
     inkscape:window-y="-8"
     inkscape:window-maximized="1" />
  <metadata
     id="metadata5164">
    <rdf:RDF>
      <cc:Work
         rdf:about="">
        <dc:format>image/svg+xml</dc:format>
        <dc:type
           rdf:resource="http://purl.org/dc/dcmitype/StillImage" />
        <dc:title></dc:title>
      </cc:Work>
    </rdf:RDF>
  </metadata>
  <g
     inkscape:label="Layer 1"
     inkscape:groupmode="layer"
     id="layer1"
     transform="translate(0,24.597818)">
    <rect
       style="fill:#e3ddc7;fill-opacity:1;fill-rule:nonzero;stroke:none"
       id="rect5131"
       width="1024.7502"
       height="1076.1322"
       x="-7.1245131"
       y="-24.534658"
       inkscape:export-filename="C:\Users\Markus\level1.png"
       inkscape:export-xdpi="300"
       inkscape:export-ydpi="300" />
    <path
       style="fill:#9ad5dd;stroke:none;stroke-width:1px;stroke-linecap:butt;stroke-linejoin:miter;stroke-opacity:1;fill-opacity:1"
       d="m 367.69553,432.48264 c 0,0 253.54829,-44.44671 263.64981,43.43656 10.10153,87.88327 16.16244,287.89347 16.16244,287.89347 0,0 131.31983,137.38075 117.1777,138.3909 -14.14214,1.01015 -462.64987,-13.13198 -462.64987,-13.13198 l 27.27412,-149.50258 z"
       id="path3024"
       inkscape:connector-curvature="0"
       transform="translate(0,-24.597818)" />
    <path
       style="fill:#9ad5dd;fill-opacity:1;stroke:none"
       d="m 221.35196,856.38118 c 0,0 52.29627,208.00992 545.22104,191.46762 113.85372,-3.8209 24.38031,-144.99803 24.38031,-144.99803 L 720.08418,914.53866 465.69007,931.8245 211.71121,860.42223 z"
       id="path3777"
       inkscape:connector-curvature="0"
       sodipodi:nodetypes="csccccc" />
    <path
       style="fill:#000000;stroke:none"
       d="m 393.41441,740.26625 c 0,0 38.1424,65.96425 -15.4414,89.6156 -53.58387,23.65129 -141.45352,3.36399 -141.45352,3.36399 0,0 -54.79066,-98.07342 -28.37704,-117.61601 26.41363,-19.54257 174.85072,-42.29006 185.27196,24.63642 z"
       id="path3771"
       inkscape:connector-curvature="0" />
    <path
       style="fill:#666666;stroke:none"
       d="m 32.940888,-24.512817 c 0,0 26.383092,247.869027 22.1618,281.630867 -4.221294,33.76187 1.114367,173.21394 8.501633,197.88607 7.387265,24.67212 -19.054874,173.49437 -19.054874,173.49437 0,0 -2.110653,198.67555 -11.608559,263.60225 -9.497919,64.9265 -12.663893,132.45016 -9.497919,138.94286 3.165973,6.4927 0,20.4176 0,20.4176 l -28.4937317,0 0,-1076.067407 z"
       id="path5133"
       inkscape:connector-curvature="0"
       inkscape:export-filename="C:\Users\Markus\level1.png"
       inkscape:export-xdpi="300"
       inkscape:export-ydpi="300"
       sodipodi:nodetypes="csscsscccc" />
    <path
       inkscape:connector-curvature="0"
       id="path5135"
       d="m 993.02382,1051.4252 c 0,0 -24.47831,-250.22186 -20.56178,-283.98376 3.91654,-33.76179 31.33226,-258.40803 24.4783,-283.08016 -6.85392,-24.67213 -14.68698,-88.30024 -14.68698,-88.30024 0,0 1.95827,-198.67555 10.77046,-263.6022 8.81218,-64.926637 11.74958,-132.45030706 8.81218,-138.9430171 -2.93739,-6.4927099 0,-18.0072499 0,-18.0072499 l 26.4366,0 0,1075.952627 z"
       style="fill:#666666;stroke:none"
       inkscape:export-filename="C:\Users\Markus\level1.png"
       inkscape:export-xdpi="300"
       inkscape:export-ydpi="300"
       sodipodi:nodetypes="csscsscccc" />
    <path
       sodipodi:nodetypes="csscsscccc"
       inkscape:export-ydpi="300"
       inkscape:export-xdpi="300"
       inkscape:export-filename="C:\Users\Markus\level1.png"
       inkscape:connector-curvature="0"
       id="path2988"
       d="m 8.262346,1026.7606 c 0,0 234.899644,-17.7788 266.894944,-14.9342 31.99532,2.8446 244.88723,22.7569 268.26844,17.7788 23.38121,-4.978 83.68006,-10.6673 83.68006,-10.6673 0,0 188.28014,1.4223 249.80958,7.8227 61.52946,6.4004 125.52003,8.5339 131.67303,6.4004 6.153,-2.1335 19.3492,0 19.3492,0 l 0,19.2011 -1019.7637577,0 z"
       style="fill:#666666;stroke:none" />
    <g
       id="g3000"
       transform="matrix(0.46625099,0,0,1,0.42498848,124.76962)">
      <path
         id="path3002"
         d="m 8.7874018,215.18504 c 0,0 247.9960682,-10.59449 387.4960682,-29.33858 129.08268,-17.32677 265.53544,-2.16142 265.53544,-2.16142 l 129.79135,27.14174 c 0,0 102.29527,17.39763 55.09842,-36.92126 -47.23228,-54.35434 -67.00394,-62.82284 -67.00394,-62.82284 0,0 -29.37401,-36.106301 -184.78347,-16.511812 -155.37401,19.559052 -310.74803,22.818902 -310.74803,22.818902 0,0 -107.07875,-5.38583 -127.84253,-7.61811 -44.04331,-4.7126 -51.02362,0.28346 -80.645669,-10.629926 C 14.244095,76.500001 -21.366142,13.96063 14.031496,9.6023624 49.429135,5.2440946 4.8543308,0 4.8543308,0 z"
         style="fill:#666666;fill-opacity:1;fill-rule:nonzero;stroke:none"
         inkscape:connector-curvature="0" />
    </g>
    <g
       transform="matrix(-0.46625099,0,0,1,1009.0036,124.76962)"
       id="g3010">
      <path
         inkscape:connector-curvature="0"
         style="fill:#666666;fill-opacity:1;fill-rule:nonzero;stroke:none"
         d="m 8.7874018,215.18504 c 0,0 247.9960682,-10.59449 387.4960682,-29.33858 129.08268,-17.32677 265.53544,-2.16142 265.53544,-2.16142 l 129.79135,27.14174 c 0,0 102.29527,17.39763 55.09842,-36.92126 -47.23228,-54.35434 -67.00394,-62.82284 -67.00394,-62.82284 0,0 -29.37401,-36.106301 -184.78347,-16.511812 -155.37401,19.559052 -310.74803,22.818902 -310.74803,22.818902 0,0 -107.07875,-5.38583 -127.84253,-7.61811 -44.04331,-4.7126 -51.02362,0.28346 -80.645669,-10.629926 C 14.244095,76.500001 -21.366142,13.96063 14.031496,9.6023624 49.429135,5.2440946 4.8543308,0 4.8543308,0 z"
         id="path3012" />
    </g>
    <path
       inkscape:connector-curvature="0"
       id="path3014"
       d="m 801.98584,760.26625 c 0,0 38.1424,65.96425 -15.4414,89.6156 -53.58387,23.65129 -141.45352,3.36399 -141.45352,3.36399 0,0 -54.79066,-98.07342 -28.37704,-117.61601 26.41363,-19.54257 174.85072,-42.29006 185.27196,24.63642 z"
       style="fill:#000000;stroke:none" />
    <path
       style="fill:#666666;stroke:none;stroke-width:1px;stroke-linecap:butt;stroke-linejoin:miter;stroke-opacity:1;fill-opacity:1"
       d="m 620.71428,431.95996 c 0,0 -44.99999,-45 -36.42857,22.14286 8.57143,67.14286 122.85715,192.85714 122.85715,192.85714 0,0 71.42857,62.85714 68.57143,121.42857 -2.85715,58.57143 27.14285,88.57143 -25.71429,97.14286 -52.85714,8.57143 -405.71429,-11.42857 -405.71429,-11.42857 0,0 -145.71428,7.14286 -147.14285,-14.28572 -1.42857,-21.42857 -121.428574,24.28572 -81.42857,62.85715 40,38.57143 354.28571,-1.42857 392.85714,24.28571 38.57143,25.71429 240,61.42857 261.42857,50 21.42857,-11.42857 185.71429,-8.57143 97.14286,-217.14286 C 778.57143,551.24568 719.31165,474.28047 680,458.38853 646.42858,444.8171 620.71428,431.95996 620.71428,431.95996 z"
       id="path3016"
       inkscape:connector-curvature="0"
       transform="translate(0,-24.597818)"
       sodipodi:nodetypes="cscsscssssssc" />
    <g
       transform="matrix(-0.03154358,0.60249841,-0.99770887,-0.08762408,511.6106,284.33003)"
       id="g3018">
      <path
         inkscape:connector-curvature="0"
         style="fill:#666666;fill-opacity:1;fill-rule:nonzero;stroke:none"
         d="m 8.7874018,215.18504 c 0,0 247.9960682,-10.59449 387.4960682,-29.33858 129.08268,-17.32677 265.53544,-2.16142 265.53544,-2.16142 l 129.79135,27.14174 c 0,0 102.29527,17.39763 55.09842,-36.92126 -47.23228,-54.35434 -67.00394,-62.82284 -67.00394,-62.82284 0,0 -29.37401,-36.106301 -184.78347,-16.511812 -155.37401,19.559052 -310.74803,22.818902 -310.74803,22.818902 0,0 -107.07875,-5.38583 -127.84253,-7.61811 -44.04331,-4.7126 -51.02362,0.28346 -80.645669,-10.629926 -61.440946,-22.641733 -183.210971,88.649236 -147.81333,84.290966 35.397639,-4.35826 -9.177165,-9.60236 -9.177165,-9.60236 z"
         id="path3020"
         sodipodi:nodetypes="ccccccccccscc" />
    </g>
    <path
       style="fill:#666666;fill-opacity:1;stroke:none"
       d="m 583.42857,416.64786 c 0,0 -61.42857,317.14285 -10,341.42857 51.42857,24.28571 162.85714,22.85714 162.85714,22.85714 0,0 78.57143,12.85714 65.71429,-44.28571 -12.85714,-57.14286 -218.57143,-320 -218.57143,-320 z"
       id="path3022"
       inkscape:connector-curvature="0" />
  </g>
</svg>
