<?xml version="1.0" encoding="UTF-8" standalone="no"?>
<!-- Created with Inkscape (http://www.inkscape.org/) -->

<svg
   xmlns:dc="http://purl.org/dc/elements/1.1/"
   xmlns:cc="http://creativecommons.org/ns#"
   xmlns:rdf="http://www.w3.org/1999/02/22-rdf-syntax-ns#"
   xmlns:svg="http://www.w3.org/2000/svg"
   xmlns="http://www.w3.org/2000/svg"
   xmlns:sodipodi="http://sodipodi.sourceforge.net/DTD/sodipodi-0.dtd"
   xmlns:inkscape="http://www.inkscape.org/namespaces/inkscape"
   width="1028.27"
   height="1076.96"
   id="svg5159"
   version="1.1"
   inkscape:version="0.48.4 r9939"
   sodipodi:docname="level3.svg"
   inkscape:export-filename="D:\Projects\drill-baby-drill\levels\level2.png"
   inkscape:export-xdpi="359.98999"
   inkscape:export-ydpi="359.98999">
  <defs
     id="defs5161" />
  <sodipodi:namedview
     id="base"
     pagecolor="#ffffff"
     bordercolor="#666666"
     borderopacity="1.0"
     inkscape:pageopacity="0.0"
     inkscape:pageshadow="2"
     inkscape:zoom="0.7"
     inkscape:cx="481.75665"
     inkscape:cy="677.49523"
     inkscape:document-units="px"
     inkscape:current-layer="layer1"
     showgrid="false"
     inkscape:window-width="1920"
     inkscape:window-height="1028"
     inkscape:window-x="-8"
     inkscape:window-y="-8"
     inkscape:window-maximized="1" />
  <metadata
     id="metadata5164">
    <rdf:RDF>
      <cc:Work
         rdf:about="">
        <dc:format>image/svg+xml</dc:format>
        <dc:type
           rdf:resource="http://purl.org/dc/dcmitype/StillImage" />
        <dc:title></dc:title>
      </cc:Work>
    </rdf:RDF>
  </metadata>
  <g
     inkscape:label="Layer 1"
     inkscape:groupmode="layer"
     id="layer1"
     transform="translate(0,24.597818)">
    <rect
       style="fill:#e3ddc7;fill-opacity:1;fill-rule:nonzero;stroke:none"
       id="rect5131"
       width="1024.7502"
       height="1076.1322"
       x="-7.1245131"
       y="-24.534658"
       inkscape:export-filename="C:\Users\Markus\level1.png"
       inkscape:export-xdpi="300"
       inkscape:export-ydpi="300" />
    <path
       inkscape:connector-curvature="0"
       id="path3775"
       d="m 254.12096,654.0023 c 0,0 74.92525,-164.64235 67.18986,-228.56913 -7.73538,-63.92677 -80.62644,-125.30074 -80.62644,-125.30074 l -56.29927,115.28458 3.36299,146.41501 69.91285,98.63129 z"
       style="fill:#9ad5dd;fill-opacity:1;stroke:none" />
    <path
       style="fill:#9ad5dd;fill-opacity:1;stroke:none"
       d="m 359.5617,440.07491 c 0,0 -76.42366,194.81356 122.43814,280.55342 45.93226,19.80383 76.8664,-123.41008 76.8664,-123.41008 L 525.94723,593.1335 419.2491,556.6295 353.94403,441.68932 z"
       id="path3777"
       inkscape:connector-curvature="0"
       sodipodi:nodetypes="csccccc" />
    <path
       style="fill:#000000;stroke:none;stroke-width:1px;stroke-linecap:butt;stroke-linejoin:miter;stroke-opacity:1"
       d="m 567.14286,454.10282 c 0,0 75.71428,8.57143 62.85714,65.71428 -12.85714,57.14286 -81.42857,115.71429 -81.42857,115.71429 0,0 -111.42857,-14.28571 -111.42857,-47.14286 0,-32.85714 70,-165.71428 130,-134.28571 z"
       id="path3771"
       inkscape:connector-curvature="0"
       transform="translate(0,-24.597818)" />
    <path
       style="fill:#cbc0a0;fill-opacity:1;stroke:none"
       d="m 420,579.8171 c 0,0 152.85714,-82.85714 170,-137.14285 17.14286,-54.28572 -193.57143,-25 -193.57143,-25 l 40.71429,-65 -55.71429,115.71428 40,118.57143 z"
       id="path3773"
       inkscape:connector-curvature="0"
       transform="translate(0,-24.597818)"
       sodipodi:nodetypes="csccccc" />
    <path
       style="fill:#666666;fill-opacity:1;stroke:none"
       d="m 489.96565,288.34019 c 0,0 -52.72081,241.93153 -9.32476,259.10413 43.39604,17.17259 -5.73832,71.21575 -5.73832,71.21575 l -77.82596,-116.16754 0,-116.16754 34.42992,-87.3782 z"
       id="path3781"
       inkscape:connector-curvature="0"
       sodipodi:nodetypes="csccccc" />
    <path
       sodipodi:nodetypes="csccccc"
       inkscape:connector-curvature="0"
       id="path3779"
       d="m 751.32273,364.41494 c 0,0 -14.76171,134.1281 -48.4797,179.5547 -170.90633,230.25376 113.81347,77.7465 113.81347,77.7465 l -0.8458,-38.18919 20.32882,-126.77931 -65.02995,-75.82329 z"
       style="fill:#9ad5dd;fill-opacity:1;stroke:none" />
    <path
       style="fill:#9ad5dd;stroke:none;stroke-width:1px;stroke-linecap:butt;stroke-linejoin:miter;stroke-opacity:1;fill-opacity:1"
       d="m 27.142857,452.67425 100.000003,394.28571 394.28571,165.71424 312.85714,-109.99995 179.99999,-310 -72.85713,-260 -174.28571,-170 -208.57143,-50 -130,31.42857 c 0,0 14.28571,185.71428 50,170 35.71428,-15.71429 140,-20 140,-20 l 154.28571,72.85714 50,172.85714 -111.42857,201.42858 -214.28571,64.28571 -240,-112.85714 L 190,466.95996 c 0,0 -111.428571,-58.57143 -162.857143,-14.28571 z"
       id="path3769"
       inkscape:connector-curvature="0"
       transform="translate(0,-24.597818)" />
    <path
       style="fill:#666666;stroke:none"
       d="m 32.940888,-24.512817 c 0,0 26.383092,247.869027 22.1618,281.630867 -4.221294,33.76187 1.114367,173.21394 8.501633,197.88607 7.387265,24.67212 -19.054874,173.49437 -19.054874,173.49437 0,0 -2.110653,198.67555 -11.608559,263.60225 -9.497919,64.9265 -12.663893,132.45016 -9.497919,138.94286 3.165973,6.4927 0,20.4176 0,20.4176 l -28.4937317,0 0,-1076.067407 z"
       id="path5133"
       inkscape:connector-curvature="0"
       inkscape:export-filename="C:\Users\Markus\level1.png"
       inkscape:export-xdpi="300"
       inkscape:export-ydpi="300"
       sodipodi:nodetypes="csscsscccc" />
    <path
       inkscape:connector-curvature="0"
       id="path5135"
       d="m 993.02382,1051.4252 c 0,0 -24.47831,-250.22186 -20.56178,-283.98376 3.91654,-33.76179 31.33226,-258.40803 24.4783,-283.08016 -6.85392,-24.67213 -14.68698,-88.30024 -14.68698,-88.30024 0,0 1.95827,-198.67555 10.77046,-263.6022 8.81218,-64.926637 11.74958,-132.45030706 8.81218,-138.9430171 -2.93739,-6.4927099 0,-18.0072499 0,-18.0072499 l 26.4366,0 0,1075.952627 z"
       style="fill:#666666;stroke:none"
       inkscape:export-filename="C:\Users\Markus\level1.png"
       inkscape:export-xdpi="300"
       inkscape:export-ydpi="300"
       sodipodi:nodetypes="csscsscccc" />
    <path
       sodipodi:nodetypes="csscsscccc"
       inkscape:export-ydpi="300"
       inkscape:export-xdpi="300"
       inkscape:export-filename="C:\Users\Markus\level1.png"
       inkscape:connector-curvature="0"
       id="path2988"
       d="m 8.262346,1026.7606 c 0,0 234.899644,-17.7788 266.894944,-14.9342 31.99532,2.8446 244.88723,22.7569 268.26844,17.7788 23.38121,-4.978 83.68006,-10.6673 83.68006,-10.6673 0,0 188.28014,1.4223 249.80958,7.8227 61.52946,6.4004 125.52003,8.5339 131.67303,6.4004 6.153,-2.1335 19.3492,0 19.3492,0 l 0,19.2011 -1019.7637577,0 z"
       style="fill:#666666;stroke:none" />
    <path
       transform="matrix(-0.60946942,1.055632,-1.055632,-0.60946942,836.9778,389.66756)"
       style="fill:none;stroke:#666666;stroke-width:50;stroke-linecap:butt;stroke-linejoin:miter;stroke-miterlimit:4;stroke-opacity:1"
       d="m 177.14285,164.10281 c 10.78553,18.68108 -19.86052,23.75527 -31.04918,17.92627 -30.32058,-15.79624 -24.43856,-58.47846 -4.80334,-80.02463 35.1228,-38.541039 96.60319,-27.685018 129.00007,8.31957 47.54371,52.83819 31.17739,135.29923 -21.44249,177.97552 C 178.71388,345.18031 74.642759,323.08307 21.896949,253.73413 -44.47827,166.46557 -16.553401,40.5213 69.585272,-22.192271 173.91075,-98.146808 321.86345,-64.344904 394.48712,38.618969 480.07159,159.95833 440.36436,329.9985 320.55296,412.49626 182.22596,507.74319 -9.9519611,462.113 -102.29977,325.43919 -207.23123,170.14172 -155.6664,-44.207985 -2.1197824,-146.38899 170.13632,-261.02064 406.68192,-203.51306 518.68384,-33.086085 643.0272,156.12016 579.57097,414.8794 392.25802,536.69298"
       id="path2996" />
    <path
       style="fill:#666666;stroke:none;stroke-width:1px;stroke-linecap:butt;stroke-linejoin:miter;stroke-opacity:1;fill-opacity:1"
       d="M 35.714286,624.10282 17.142857,1064.1028 1017.1429,1065.5314 1000,666.95996 794.28571,908.38853 l -250,82.85715 -257.14285,-60 -120,-118.57143 z"
       id="path3766"
       inkscape:connector-curvature="0"
       transform="translate(0,-24.597818)" />
    <path
       style="fill:#000000;stroke:none"
       d="m 571.24126,686.03093 c 8.85153,-6.81636 48.48733,-33.84011 55.55839,-8.08122 7.07107,25.75889 -17.67767,52.52793 -17.67767,52.52793 0,0 -52.02285,35.35534 -63.63961,6.56599 -11.61675,-28.78935 25.75889,-51.0127 25.75889,-51.0127 z"
       id="path3783"
       inkscape:connector-curvature="0"
       transform="translate(0,-24.597818)"
       sodipodi:nodetypes="cscsc" />
  </g>
</svg>
