<?xml version="1.0" encoding="UTF-8" standalone="no"?>
<!-- Created with Inkscape (http://www.inkscape.org/) -->

<svg
   xmlns:dc="http://purl.org/dc/elements/1.1/"
   xmlns:cc="http://creativecommons.org/ns#"
   xmlns:rdf="http://www.w3.org/1999/02/22-rdf-syntax-ns#"
   xmlns:svg="http://www.w3.org/2000/svg"
   xmlns="http://www.w3.org/2000/svg"
   xmlns:sodipodi="http://sodipodi.sourceforge.net/DTD/sodipodi-0.dtd"
   xmlns:inkscape="http://www.inkscape.org/namespaces/inkscape"
   width="1380.86"
   height="1076.96"
   id="svg5159"
   version="1.1"
   inkscape:version="0.48.4 r9939"
   sodipodi:docname="level6.svg"
   inkscape:export-filename="D:\Projects\drill-baby-drill\levels\level2.png"
   inkscape:export-xdpi="359.98999"
   inkscape:export-ydpi="359.98999">
  <defs
     id="defs5161" />
  <sodipodi:namedview
     id="base"
     pagecolor="#ffffff"
     bordercolor="#666666"
     borderopacity="1.0"
     inkscape:pageopacity="0.0"
     inkscape:pageshadow="2"
     inkscape:zoom="0.7"
     inkscape:cx="516.22131"
     inkscape:cy="574.1746"
     inkscape:document-units="px"
     inkscape:current-layer="layer1"
     showgrid="false"
     inkscape:window-width="1920"
     inkscape:window-height="1028"
     inkscape:window-x="-8"
     inkscape:window-y="-8"
     inkscape:window-maximized="1" />
  <metadata
     id="metadata5164">
    <rdf:RDF>
      <cc:Work
         rdf:about="">
        <dc:format>image/svg+xml</dc:format>
        <dc:type
           rdf:resource="http://purl.org/dc/dcmitype/StillImage" />
        <dc:title></dc:title>
      </cc:Work>
    </rdf:RDF>
  </metadata>
  <g
     inkscape:label="Layer 1"
     inkscape:groupmode="layer"
     id="layer1"
     transform="translate(0,24.597857)">
    <rect
       style="fill:#e3ddc7;fill-opacity:1;fill-rule:nonzero;stroke:none"
       id="rect5131"
       width="1376.2833"
       height="1076.1322"
       x="0"
       y="-24.534697"
       inkscape:export-filename="C:\Users\Markus\level1.png"
       inkscape:export-xdpi="300"
       inkscape:export-ydpi="300" />
    <rect
       transform="matrix(0.74622166,0.66569755,-0.72748562,0.68612293,0,0)"
       y="-209.38293"
       x="858.97052"
       height="139.55618"
       width="611.65118"
       id="rect3839"
       style="fill:#9ad5dd;fill-opacity:1;fill-rule:nonzero;stroke:none" />
    <rect
       style="fill:#9ad5dd;fill-opacity:1;fill-rule:nonzero;stroke:none"
       id="rect3837"
       width="611.65118"
       height="139.55618"
       x="245.37671"
       y="-102.84629"
       transform="matrix(0.74622166,0.66569755,-0.72748562,0.68612293,0,0)" />
    <path
       inkscape:connector-curvature="0"
       id="path3831"
       d="m 1352.8069,166.64782 -75.7143,8.57142 -48.5714,61.42858 -128.5714,61.42857 -214.28574,197.14285 85.71429,128.57143 197.14285,142.85715 94.2857,54.28571 c 0,0 120,20 117.1429,8.57143 -2.8572,-11.42857 -27.1429,-662.85714 -27.1429,-662.85714 z"
       style="fill:#666666;fill-opacity:1;stroke:none" />
    <path
       style="fill:#666666;stroke:none;stroke-width:1px;stroke-linecap:butt;stroke-linejoin:miter;stroke-opacity:1;fill-opacity:1"
       d="m 42.857143,191.24568 75.714287,8.57142 48.57143,61.42858 128.57143,61.42857 L 510,519.8171 424.28571,648.38853 227.14286,791.24568 132.85714,845.53139 c 0,0 -119.999997,20 -117.142854,8.57143 2.857143,-11.42857 27.142857,-662.85714 27.142857,-662.85714 z"
       id="path3829"
       inkscape:connector-curvature="0"
       transform="translate(0,-24.597857)" />
    <path
       style="fill:none;stroke:#666666;stroke-width:15;stroke-linecap:butt;stroke-linejoin:miter;stroke-miterlimit:4;stroke-opacity:1;stroke-dasharray:none"
       d="M 577.57934,471.28404 C 565.25233,458.3051 275.64028,183.34244 275.64028,183.34244"
       id="path3021"
       inkscape:connector-curvature="0" />
    <path
       style="fill:#666666;stroke:none"
       d="m 40.065403,-24.512856 c 0,0 26.383092,247.869026 22.1618,281.630866 -4.221294,33.76187 1.114367,173.21394 8.501633,197.88607 7.387265,24.67212 -19.054874,173.49437 -19.054874,173.49437 0,0 -2.110653,198.67555 -11.608559,263.60225 -9.497919,64.9265 -12.663893,132.4502 -9.497919,138.9429 3.165973,6.4927 0,20.4176 0,20.4176 l -28.4937317,0 0,-1076.067446 z"
       id="path5133"
       inkscape:connector-curvature="0"
       inkscape:export-filename="C:\Users\Markus\level1.png"
       inkscape:export-xdpi="300"
       inkscape:export-ydpi="300"
       sodipodi:nodetypes="csscsscccc" />
    <path
       inkscape:connector-curvature="0"
       id="path5135"
       d="m 1345.6205,1051.4252 c 0,0 -24.4783,-250.2219 -20.5618,-283.9838 3.9166,-33.76179 31.3323,-258.40803 24.4783,-283.08016 -6.8539,-24.67213 -14.687,-88.30024 -14.687,-88.30024 0,0 1.9583,-198.67555 10.7705,-263.6022 8.8122,-64.926636 11.7496,-132.45030606 8.8122,-138.9430161 -2.9374,-6.4927099 0,-18.0072499 0,-18.0072499 l 26.4366,0 0,1075.952666 z"
       style="fill:#666666;stroke:none"
       inkscape:export-filename="C:\Users\Markus\level1.png"
       inkscape:export-xdpi="300"
       inkscape:export-ydpi="300"
       sodipodi:nodetypes="csscsscccc" />
    <path
       sodipodi:nodetypes="csscsscccc"
       inkscape:export-ydpi="300"
       inkscape:export-xdpi="300"
       inkscape:export-filename="C:\Users\Markus\level1.png"
       inkscape:connector-curvature="0"
       id="path2988"
       d="m 15.415266,1026.7606 c 0,0 310.289814,-17.7788 352.553894,-14.9342 42.2641,2.8446 323.48288,22.7569 354.3682,17.7788 30.88533,-4.978 110.53687,-10.6673 110.53687,-10.6673 0,0 248.70797,1.4223 329.98507,7.8227 81.2771,6.4004 165.8052,8.5339 173.933,6.4004 8.1278,-2.1335 25.5592,0 25.5592,0 l 0,19.2011 -1347.053143,0 z"
       style="fill:#666666;stroke:none" />
    <path
       inkscape:connector-curvature="0"
       id="path3013"
       d="m 310.3661,61.164497 c 0,0 82.99446,37.515412 47.41337,97.810233 -35.58108,60.29483 -135.07024,101.78481 -135.07024,101.78481 0,0 -121.52998,-57.11257 -109.48146,-94.49302 C 125.27629,128.88607 253.63082,3.4076436 310.3661,61.164497 z"
       style="fill:#000000;stroke:none" />
    <path
       style="fill:none;stroke:#666666;stroke-width:30;stroke-linecap:butt;stroke-linejoin:miter;stroke-miterlimit:4;stroke-opacity:1;stroke-dasharray:none"
       d="M 593.30216,392.10438 353.64946,160.96644 c 0,0 40.46047,-43.20916 7.61257,-69.716681 -32.84789,-26.50752 -120.49806,-70.678994 -120.95905,-52.784986 -0.46096,17.894018 -97.70242,69.334677 -98.4733,88.190127 -0.77087,18.85547 -36.39235,66.80832 -14.89893,75.85877 21.4934,9.05045 77.08201,73.66634 104.46342,64.44936 27.38139,-9.21699 262.71961,205.67169 262.71961,205.67169"
       id="path3791"
       inkscape:connector-curvature="0" />
    <path
       inkscape:connector-curvature="0"
       id="path3811"
       d="M 835.76815,471.28404 C 848.09516,458.3051 1137.7072,183.34244 1137.7072,183.34244"
       style="fill:none;stroke:#666666;stroke-width:15;stroke-linecap:butt;stroke-linejoin:miter;stroke-miterlimit:4;stroke-opacity:1;stroke-dasharray:none" />
    <path
       style="fill:#000000;stroke:none"
       d="m 1102.9814,61.164497 c 0,0 -82.9945,37.515412 -47.4134,97.810233 35.5811,60.29483 135.0703,101.78481 135.0703,101.78481 0,0 121.5299,-57.11257 109.4814,-94.49302 C 1288.0712,128.88607 1159.7167,3.4076436 1102.9814,61.164497 z"
       id="path3813"
       inkscape:connector-curvature="0" />
    <path
       inkscape:connector-curvature="0"
       id="path3815"
       d="M 820.04533,392.10438 1059.698,160.96644 c 0,0 -40.4604,-43.20916 -7.6125,-69.716681 32.8479,-26.50752 120.498,-70.678994 120.959,-52.784986 0.461,17.894018 97.7024,69.334677 98.4733,88.190127 0.7709,18.85547 36.3924,66.80832 14.8989,75.85877 -21.4934,9.05045 -77.082,73.66634 -104.4634,64.44936 -27.3814,-9.21699 -262.71959,205.67169 -262.71959,205.67169"
       style="fill:none;stroke:#666666;stroke-width:30;stroke-linecap:butt;stroke-linejoin:miter;stroke-miterlimit:4;stroke-opacity:1;stroke-dasharray:none" />
    <path
       inkscape:connector-curvature="0"
       id="path3817"
       d="M 577.57934,555.6663 C 565.25233,568.64524 275.64028,843.6079 275.64028,843.6079"
       style="fill:none;stroke:#666666;stroke-width:15;stroke-linecap:butt;stroke-linejoin:miter;stroke-miterlimit:4;stroke-opacity:1;stroke-dasharray:none" />
    <path
       style="fill:#000000;stroke:none"
       d="m 310.3661,965.78585 c 0,0 82.99446,-37.51542 47.41337,-97.81024 C 322.19839,807.68078 222.70923,766.1908 222.70923,766.1908 c 0,0 -121.52998,57.11257 -109.48146,94.49302 12.04852,37.38045 140.40305,162.85888 197.13833,105.10203 z"
       id="path3819"
       inkscape:connector-curvature="0" />
    <path
       inkscape:connector-curvature="0"
       id="path3821"
       d="M 593.30216,634.84596 353.64946,865.9839 c 0,0 40.46047,43.20916 7.61257,69.71668 -32.84789,26.50752 -120.49806,70.67902 -120.95905,52.78499 -0.46096,-17.89402 -97.70242,-69.33468 -98.4733,-88.19013 -0.77087,-18.85547 -36.39235,-66.80832 -14.89893,-75.85877 21.4934,-9.05045 77.08201,-73.66634 104.46342,-64.44936 27.38139,9.21699 262.71961,-205.67169 262.71961,-205.67169"
       style="fill:none;stroke:#666666;stroke-width:30;stroke-linecap:butt;stroke-linejoin:miter;stroke-miterlimit:4;stroke-opacity:1;stroke-dasharray:none" />
    <path
       style="fill:none;stroke:#666666;stroke-width:15;stroke-linecap:butt;stroke-linejoin:miter;stroke-miterlimit:4;stroke-opacity:1;stroke-dasharray:none"
       d="m 835.76815,557.6663 c 12.32701,12.97894 301.93905,287.9416 301.93905,287.9416"
       id="path3823"
       inkscape:connector-curvature="0" />
    <path
       inkscape:connector-curvature="0"
       id="path3825"
       d="m 1102.9814,965.78585 c 0,0 -82.9945,-37.51542 -47.4134,-97.81024 35.5811,-60.29483 135.0703,-101.78481 135.0703,-101.78481 0,0 121.5299,57.11257 109.4814,94.49302 -12.0485,37.38045 -140.403,162.85888 -197.1383,105.10203 z"
       style="fill:#000000;stroke:none" />
    <path
       style="fill:none;stroke:#666666;stroke-width:30;stroke-linecap:butt;stroke-linejoin:miter;stroke-miterlimit:4;stroke-opacity:1;stroke-dasharray:none"
       d="M 820.04533,634.84596 1059.698,865.9839 c 0,0 -40.4604,43.20916 -7.6125,69.71668 32.8479,26.50752 120.498,70.67902 120.959,52.78499 0.461,-17.89402 97.7024,-69.33468 98.4733,-88.19013 0.7709,-18.85547 36.3924,-66.80832 14.8989,-75.85877 -21.4934,-9.05045 -77.082,-73.66634 -104.4634,-64.44936 -27.3814,9.21699 -262.71959,-205.67169 -262.71959,-205.67169"
       id="path3827"
       inkscape:connector-curvature="0" />
    <path
       style="fill:#000000;stroke:none"
       d="m 807.95127,317.6293 c 0,0 229.59253,18.30417 190.60511,140.33194 -38.9874,122.0278 -246.92027,247.10629 -246.92027,247.10629 0,0 -337.89088,-30.50694 -337.89088,-100.67294 0,-70.16597 212.26479,-353.88057 394.20604,-286.76529 z"
       id="path3771"
       inkscape:connector-curvature="0" />
    <path
       style="fill:#666666;fill-opacity:1;stroke:none"
       d="M 118.57143,826.95996 15.714286,844.10282 10,1065.5314 l 1354.2857,1.4286 -7.1428,-245.71432 -50,2.85714 -20,55.71428 -35.7143,75.71429 -62.8572,42.85714 -22.8571,14.28567 -70,-29.99995 -52.8572,-27.14286 -4.2857,-31.42857 20,-32.85714 L 841.42857,679.8171 c 0,0 -90.12871,6.24655 -114.28571,12.85715 -24.84063,6.79768 -181.42857,5.71428 -181.42857,5.71428 L 350,891.24568 l 25.71429,50 -44.28572,48.57142 c 0,0 -74.28571,37.1429 -81.42857,28.5714 -7.14286,-8.5714 -88.57143,-74.28568 -88.57143,-74.28568 l -44.28571,-72.85714 z"
       id="path3833"
       inkscape:connector-curvature="0"
       transform="translate(0,-24.597857)"
       sodipodi:nodetypes="cccccccccccccccsccccsccc" />
  </g>
</svg>
