<?xml version="1.0" encoding="UTF-8" standalone="no"?>
<!-- Created with Inkscape (http://www.inkscape.org/) -->

<svg
   xmlns:dc="http://purl.org/dc/elements/1.1/"
   xmlns:cc="http://creativecommons.org/ns#"
   xmlns:rdf="http://www.w3.org/1999/02/22-rdf-syntax-ns#"
   xmlns:svg="http://www.w3.org/2000/svg"
   xmlns="http://www.w3.org/2000/svg"
   xmlns:sodipodi="http://sodipodi.sourceforge.net/DTD/sodipodi-0.dtd"
   xmlns:inkscape="http://www.inkscape.org/namespaces/inkscape"
   width="1028.27"
   height="1076.96"
   id="svg5159"
   version="1.1"
   inkscape:version="0.48.4 r9939"
   sodipodi:docname="level2.svg"
   inkscape:export-filename="D:\Projects\drill-baby-drill\levels\level2.png"
   inkscape:export-xdpi="359.98999"
   inkscape:export-ydpi="359.98999">
  <defs
     id="defs5161" />
  <sodipodi:namedview
     id="base"
     pagecolor="#ffffff"
     bordercolor="#666666"
     borderopacity="1.0"
     inkscape:pageopacity="0.0"
     inkscape:pageshadow="2"
     inkscape:zoom="1.4"
     inkscape:cx="788.14225"
     inkscape:cy="713.70065"
     inkscape:document-units="px"
     inkscape:current-layer="layer1"
     showgrid="false"
     inkscape:window-width="1920"
     inkscape:window-height="1028"
     inkscape:window-x="-8"
     inkscape:window-y="-8"
     inkscape:window-maximized="1" />
  <metadata
     id="metadata5164">
    <rdf:RDF>
      <cc:Work
         rdf:about="">
        <dc:format>image/svg+xml</dc:format>
        <dc:type
           rdf:resource="http://purl.org/dc/dcmitype/StillImage" />
        <dc:title></dc:title>
      </cc:Work>
    </rdf:RDF>
  </metadata>
  <g
     inkscape:label="Layer 1"
     inkscape:groupmode="layer"
     id="layer1"
     transform="translate(0,24.597818)">
    <rect
       style="fill:#e3ddc7;fill-opacity:1;fill-rule:nonzero;stroke:none"
       id="rect5131"
       width="1024.7502"
       height="1076.1322"
       x="-7.1245131"
       y="-24.534658"
       inkscape:export-filename="C:\Users\Markus\level1.png"
       inkscape:export-xdpi="300"
       inkscape:export-ydpi="300" />
    <path
       style="fill:#9ad5dd;fill-opacity:1;fill-rule:nonzero;stroke:none"
       d="M 407.6546,842.33279 C 303.36889,763.76136 6.6587377,826.6185 6.6587377,826.6185 c 0,0 51.3023443,39.99999 0,208.5715 L 407.6546,1050.9043 c 0,0 60.82127,-14.1875 0,-208.57151 z"
       id="path3789"
       inkscape:connector-curvature="0"
       sodipodi:nodetypes="ccccc" />
    <path
       sodipodi:nodetypes="ccccc"
       inkscape:connector-curvature="0"
       id="path3787"
       d="m 242.85715,555.44947 547.14284,-15.71429 c 0,0 -70,39.99999 0,208.57145 l -547.14284,15.71431 c 0,0 -181.42857,-54.28576 0,-208.57147 z"
       style="fill:#9ad5dd;fill-opacity:1;fill-rule:nonzero;stroke:none" />
    <path
       style="fill:#9ad5dd;fill-opacity:1;fill-rule:nonzero;stroke:none"
       d="m 144.28572,356.87803 688.57141,0 c 0,0 -70,39.99999 0,208.57142 l -688.57141,0 z"
       id="rect3784"
       inkscape:connector-curvature="0"
       sodipodi:nodetypes="ccccc" />
    <path
       inkscape:connector-curvature="0"
       id="path3782"
       d="m 98.545899,571.12331 c 0,0 69.055301,-38.99037 58.431401,-110.87889 C 146.35341,388.35591 146.94363,320.12275 133.95887,328.65189 120.97412,337.18104 20.637351,320.12275 18.276488,323.77809 15.915621,327.43345 5.8819259,501.6717 5.8819259,501.6717 c 0,0 48.3977571,77.98076 92.6639731,69.45161 z"
       style="fill:#cbc0a0;fill-opacity:1;stroke:none" />
    <path
       style="fill:#cbc0a0;fill-opacity:1;stroke:none"
       d="m 862.65793,214.33983 c 0,0 -115.12571,22.06854 -97.41405,62.75743 17.71164,40.68889 16.72765,79.30884 38.37523,74.48135 21.64756,-4.8275 188.92424,4.82749 192.86016,2.75857 3.93593,-2.06893 20.66363,-100.68775 20.66363,-100.68775 0,0 -80.68643,-44.13709 -154.48497,-39.3096 z"
       id="path3001"
       inkscape:connector-curvature="0" />
    <path
       style="fill:#666666;stroke:none"
       d="m 35.248755,-24.512817 c 0,0 24.478303,247.869027 20.561777,281.630867 -3.916528,33.76187 -13.251802,253.21394 -6.397877,277.88607 6.853925,24.67212 -3.393448,93.49437 -3.393448,93.49437 0,0 -1.95827,198.67555 -10.770452,263.60225 -8.812195,64.9265 -11.749594,132.45016 -8.812195,138.94286 2.937398,6.4927 0,20.4176 0,20.4176 L 0,1051.4612 0,-24.606207 z"
       id="path5133"
       inkscape:connector-curvature="0"
       inkscape:export-filename="C:\Users\Markus\level1.png"
       inkscape:export-xdpi="300"
       inkscape:export-ydpi="300"
       sodipodi:nodetypes="csscsscccc" />
    <path
       inkscape:connector-curvature="0"
       id="path5135"
       d="m 993.02382,1051.4252 c 0,0 -24.47831,-250.22186 -20.56178,-283.98376 3.91654,-33.76179 31.33226,-258.40803 24.4783,-283.08016 -6.85392,-24.67213 -14.68698,-88.30024 -14.68698,-88.30024 0,0 1.95827,-198.67555 10.77046,-263.6022 8.81218,-64.926637 11.74958,-132.45030706 8.81218,-138.9430171 -2.93739,-6.4927099 0,-18.0072499 0,-18.0072499 l 26.4366,0 0,1075.952627 z"
       style="fill:#666666;stroke:none"
       inkscape:export-filename="C:\Users\Markus\level1.png"
       inkscape:export-xdpi="300"
       inkscape:export-ydpi="300"
       sodipodi:nodetypes="csscsscccc" />
    <path
       sodipodi:nodetypes="csscsscccc"
       inkscape:export-ydpi="300"
       inkscape:export-xdpi="300"
       inkscape:export-filename="C:\Users\Markus\level1.png"
       inkscape:connector-curvature="0"
       id="path2988"
       d="m 8.262346,1026.7606 c 0,0 234.899644,-17.7788 266.894944,-14.9342 31.99532,2.8446 244.88723,22.7569 268.26844,17.7788 23.38121,-4.978 83.68006,-10.6673 83.68006,-10.6673 0,0 188.28014,1.4223 249.80958,7.8227 61.52946,6.4004 125.52003,8.5339 131.67303,6.4004 6.153,-2.1335 19.3492,0 19.3492,0 l 0,19.2011 -1019.7637577,0 z"
       style="fill:#666666;stroke:none" />
    <path
       style="fill:#666666;fill-opacity:1;stroke:none"
       d="m 19.668911,95.449473 c 0,0 248.000309,10.607037 387.477539,29.342307 129.07888,17.33851 265.53031,2.1735 265.53031,2.1735 l 129.8148,-27.168797 c 0,0 102.27833,-17.38804 55.07295,36.949567 -47.20539,54.3376 -52.831,121.39068 -73.53913,130.98713 0,0 -29.40452,36.09261 -184.78891,16.53108 -155.3844,-19.56154 -231.9769,-52.11623 -304.20281,-91.0071 -67.17514,-12.62691 -108.56689,-10.78456 -129.36315,-8.55517 -44.02841,4.71992 -49.49061,15.87861 -79.127303,26.79825 -61.433912,22.63534 -97.035634,85.18483 -61.631595,89.53184 35.40404,4.34701 -9.176484,9.59431 -9.176484,9.59431 z"
       id="path2989"
       inkscape:connector-curvature="0"
       sodipodi:nodetypes="csccscscssscc" />
    <path
       sodipodi:nodetypes="csccscscssscc"
       inkscape:connector-curvature="0"
       id="path2991"
       d="m 1003.9528,295.44947 c 0,0 -261.27324,10.60704 -408.21528,29.34231 -135.98716,17.33851 -279.74144,2.1735 -279.74144,2.1735 L 179.2336,299.79648 c 0,0 -107.752248,-17.38804 -58.02044,36.94957 49.73181,54.3376 70.55753,62.80183 70.55753,62.80183 0,0 30.97824,36.09261 194.67879,16.53108 163.70054,-19.56154 327.4011,-22.8218 327.4011,-22.8218 0,0 112.78103,5.37788 134.69031,7.60727 46.38481,4.71992 53.73566,-0.28383 84.95851,10.63581 64.72186,22.63534 101.3635,82.51569 64.9301,89.53184 -9.45933,1.82163 9.6676,9.59431 9.6676,9.59431 z"
       style="fill:#666666;fill-opacity:1;stroke:none" />
    <path
       sodipodi:nodetypes="csccscscssscc"
       inkscape:connector-curvature="0"
       id="path2993"
       d="m 19.668911,612.62639 c 0,0 248.000309,-10.60704 387.477539,-29.34231 129.07888,-17.33851 265.53031,-2.1735 265.53031,-2.1735 l 129.8148,27.1688 c 0,0 102.27833,17.38804 55.07295,-36.94957 -47.20539,-54.3376 -66.97314,-62.80183 -66.97314,-62.80183 0,0 -29.40452,-36.09261 -184.78891,-16.53108 -155.3844,19.56154 -310.7688,22.8218 -310.7688,22.8218 0,0 -107.05166,-5.37788 -127.84792,-7.60727 -44.02841,-4.71992 -51.00584,0.28383 -80.642533,-10.63581 -61.433912,-22.63534 -97.035634,-85.18483 -61.631595,-89.53184 35.40404,-4.34701 -9.176484,-9.59431 -9.176484,-9.59431 z"
       style="fill:#666666;fill-opacity:1;stroke:none" />
    <path
       style="fill:#000000;stroke:none"
       d="m 595.95417,852.68074 c -34.81425,-60.9882 354.25968,-28.5823 352.91997,-0.7407 -1.3397,27.8417 63.90106,203.85426 -86.13282,162.01256 -150.03395,-41.84136 -315.5285,69.3553 -266.78715,-161.27186 z"
       id="path2997"
       inkscape:connector-curvature="0"
       sodipodi:nodetypes="cssc" />
    <path
       style="fill:#666666;fill-opacity:1;stroke:none"
       d="m 1012.6655,822.62634 c 0,0 -248.00031,-10.607 -387.47754,-29.3423 -129.07888,-17.3385 -265.53031,-2.1735 -265.53031,-2.1735 l -129.81481,27.1688 c 0,0 -102.27833,17.3881 -55.07295,-36.9495 47.2054,-54.3376 66.97314,-62.80186 66.97314,-62.80186 0,0 29.40453,-36.09261 184.78892,-16.53108 155.38439,19.56154 310.7688,22.82184 310.7688,22.82184 0,0 107.05165,-5.37792 127.84792,-7.60731 44.02841,-4.71992 51.00584,0.28383 80.64253,-10.63581 61.4339,-22.63534 97.0356,-85.18483 61.6316,-89.53184 -35.40404,-4.34701 9.1765,-9.59431 9.1765,-9.59431 z"
       id="path2999"
       inkscape:connector-curvature="0"
       sodipodi:nodetypes="csccscscssscc" />
  </g>
</svg>
