<?xml version="1.0" encoding="UTF-8" standalone="no"?>
<!-- Created with Inkscape (http://www.inkscape.org/) -->

<svg
   xmlns:dc="http://purl.org/dc/elements/1.1/"
   xmlns:cc="http://creativecommons.org/ns#"
   xmlns:rdf="http://www.w3.org/1999/02/22-rdf-syntax-ns#"
   xmlns:svg="http://www.w3.org/2000/svg"
   xmlns="http://www.w3.org/2000/svg"
   xmlns:sodipodi="http://sodipodi.sourceforge.net/DTD/sodipodi-0.dtd"
   xmlns:inkscape="http://www.inkscape.org/namespaces/inkscape"
   width="1380.86"
   height="1076.96"
   id="svg5159"
   version="1.1"
   inkscape:version="0.48.4 r9939"
   sodipodi:docname="level5.svg"
   inkscape:export-filename="D:\Projects\drill-baby-drill\levels\level2.png"
   inkscape:export-xdpi="359.98999"
   inkscape:export-ydpi="359.98999">
  <defs
     id="defs5161" />
  <sodipodi:namedview
     id="base"
     pagecolor="#ffffff"
     bordercolor="#666666"
     borderopacity="1.0"
     inkscape:pageopacity="0.0"
     inkscape:pageshadow="2"
     inkscape:zoom="0.7"
     inkscape:cx="633.19056"
     inkscape:cy="573.92657"
     inkscape:document-units="px"
     inkscape:current-layer="layer1"
     showgrid="false"
     inkscape:window-width="1920"
     inkscape:window-height="1028"
     inkscape:window-x="-8"
     inkscape:window-y="-8"
     inkscape:window-maximized="1" />
  <metadata
     id="metadata5164">
    <rdf:RDF>
      <cc:Work
         rdf:about="">
        <dc:format>image/svg+xml</dc:format>
        <dc:type
           rdf:resource="http://purl.org/dc/dcmitype/StillImage" />
        <dc:title />
      </cc:Work>
    </rdf:RDF>
  </metadata>
  <g
     inkscape:label="Layer 1"
     inkscape:groupmode="layer"
     id="layer1"
     transform="translate(0,24.597857)">
    <rect
       style="fill:#e3ddc7;fill-opacity:1;fill-rule:nonzero;stroke:none"
       id="rect5131"
       width="1376.2833"
       height="1076.1322"
       x="0"
       y="-24.534697"
       inkscape:export-filename="C:\Users\Markus\level1.png"
       inkscape:export-xdpi="300"
       inkscape:export-ydpi="300" />
    <path
       style="fill:#666666;fill-opacity:1;stroke:none"
       d="m 395.54455,149.24759 c 0,0 48.47688,83.83692 -19.62517,113.89648 -68.10214,30.05948 -179.77962,4.27544 -179.77962,4.27544 0,0 -69.6359,-124.6459 -36.06565,-149.48346 33.57027,-24.837521 222.22562,-53.748326 235.47044,31.31154 z"
       id="path3771"
       inkscape:connector-curvature="0" />
    <path
       style="fill:#666666;stroke:none"
       d="m 40.065403,-24.512856 c 0,0 26.383092,247.869026 22.1618,281.630866 -4.221294,33.76187 1.114367,173.21394 8.501633,197.88607 7.387265,24.67212 -19.054874,173.49437 -19.054874,173.49437 0,0 -2.110653,198.67555 -11.608559,263.60225 -9.497919,64.9265 -12.663893,132.4502 -9.497919,138.9429 3.165973,6.4927 0,20.4176 0,20.4176 l -28.4937317,0 0,-1076.067446 z"
       id="path5133"
       inkscape:connector-curvature="0"
       inkscape:export-filename="C:\Users\Markus\level1.png"
       inkscape:export-xdpi="300"
       inkscape:export-ydpi="300"
       sodipodi:nodetypes="csscsscccc" />
    <path
       inkscape:connector-curvature="0"
       id="path5135"
       d="m 1345.6205,1051.4252 c 0,0 -24.4783,-250.2219 -20.5618,-283.9838 3.9166,-33.76179 31.3323,-258.40803 24.4783,-283.08016 -6.8539,-24.67213 -14.687,-88.30024 -14.687,-88.30024 0,0 1.9583,-198.67555 10.7705,-263.6022 8.8122,-64.926636 11.7496,-132.45030606 8.8122,-138.9430161 -2.9374,-6.4927099 0,-18.0072499 0,-18.0072499 l 26.4366,0 0,1075.952666 z"
       style="fill:#666666;stroke:none"
       inkscape:export-filename="C:\Users\Markus\level1.png"
       inkscape:export-xdpi="300"
       inkscape:export-ydpi="300"
       sodipodi:nodetypes="csscsscccc" />
    <path
       sodipodi:nodetypes="csscsscccc"
       inkscape:export-ydpi="300"
       inkscape:export-xdpi="300"
       inkscape:export-filename="C:\Users\Markus\level1.png"
       inkscape:connector-curvature="0"
       id="path2988"
       d="m 15.415266,1026.7606 c 0,0 310.289814,-17.7788 352.553894,-14.9342 42.2641,2.8446 323.48288,22.7569 354.3682,17.7788 30.88533,-4.978 110.53687,-10.6673 110.53687,-10.6673 0,0 248.70797,1.4223 329.98507,7.8227 81.2771,6.4004 165.8052,8.5339 173.933,6.4004 8.1278,-2.1335 25.5592,0 25.5592,0 l 0,19.2011 -1347.053143,0 z"
       style="fill:#666666;stroke:none" />
    <path
       inkscape:connector-curvature="0"
       id="path2998"
       d="m 468.01915,150.4911 c 0,0 -49.53683,85.67001 20.05427,116.38683 69.5912,30.71673 183.7105,4.36892 183.7105,4.36892 0,0 71.1585,-127.37128 36.85423,-152.75191 -34.30428,-25.380599 -227.08458,-54.923538 -240.619,31.99616 z"
       style="fill:#000000;stroke:none" />
    <path
       inkscape:connector-curvature="0"
       id="path3000"
       d="m 1011.5902,229.26436 c 0,0 51.6568,-89.33621 -20.91244,-121.36753 -72.56931,-32.03123 -191.57227,-4.55589 -191.57227,-4.55589 0,0 -74.20367,132.82206 -38.43138,159.28883 35.77231,26.46675 236.80251,57.27396 250.91609,-33.36541 z"
       style="fill:#000000;stroke:none" />
    <path
       style="fill:#666666;fill-opacity:1;stroke:none"
       d="m 1068.7506,229.26436 c 0,0 -51.6568,-89.33621 20.9124,-121.36753 72.5694,-32.03123 191.5723,-4.55589 191.5723,-4.55589 0,0 74.2037,132.82206 38.4313,159.28883 -35.7723,26.46675 -236.8025,57.27396 -250.916,-33.36541 z"
       id="path3002"
       inkscape:connector-curvature="0" />
    <path
       inkscape:connector-curvature="0"
       id="path3004"
       d="m 398.21883,390.28565 c 0,0 49.00686,84.75347 -19.83972,115.14166 -68.84667,30.38811 -181.74506,4.32218 -181.74506,4.32218 0,0 -70.3972,-126.00859 -36.45994,-151.11768 33.93727,-25.10907 224.6551,-54.33594 238.04472,31.65384 z"
       style="fill:#000000;stroke:none" />
    <path
       style="fill:#666666;fill-opacity:1;stroke:none"
       d="m 468.11058,391.21828 c 0,0 -49.80182,86.1283 20.16155,117.00942 69.96346,30.88105 184.69322,4.3923 184.69322,4.3923 0,0 71.53914,-128.05263 37.05137,-153.56903 C 675.52894,333.5346 481.7174,303.83363 468.11058,391.21828 z"
       id="path3006"
       inkscape:connector-curvature="0" />
    <path
       style="fill:#666666;fill-opacity:1;stroke:none"
       d="m 1006.2417,466.87184 c 0,0 50.5967,-87.50312 -20.4834,-118.87718 -71.08025,-31.37399 -187.64138,-4.46241 -187.64138,-4.46241 0,0 -72.68109,130.09667 -37.64281,156.02037 35.0383,25.92367 231.94355,56.09875 245.76759,-32.68078 z"
       id="path3008"
       inkscape:connector-curvature="0" />
    <path
       inkscape:connector-curvature="0"
       id="path3010"
       d="m 1068.2934,466.16963 c 0,0 -50.3318,-87.04484 20.3761,-118.25459 70.708,-31.20968 186.6587,-4.43904 186.6587,-4.43904 0,0 72.3004,129.41533 37.4456,155.20326 -34.8548,25.78791 -230.7288,55.80495 -244.4804,-32.50963 z"
       style="fill:#000000;stroke:none" />
    <path
       style="fill:#000000;stroke:none"
       d="m 403.56739,607.70181 c 0,0 50.06681,86.58657 -20.26882,117.63201 -70.33572,31.04536 -185.67594,4.41567 -185.67594,4.41567 0,0 -71.91979,-128.73398 -37.24852,-154.38615 34.67129,-25.65214 229.51406,-55.51114 243.19328,32.33847 z"
       id="path3012"
       inkscape:connector-curvature="0" />
    <path
       inkscape:connector-curvature="0"
       id="path3014"
       d="m 468.01915,607.08006 c 0,0 -49.53683,85.67001 20.05427,116.38683 69.5912,30.71673 183.7105,4.36893 183.7105,4.36893 0,0 71.1585,-127.37129 36.85423,-152.75192 -34.30428,-25.3806 -227.08458,-54.92354 -240.619,31.99616 z"
       style="fill:#666666;fill-opacity:1;stroke:none" />
    <path
       inkscape:connector-curvature="0"
       id="path3016"
       d="m 1003.5674,681.64007 c 0,0 50.0668,-86.58656 -20.26883,-117.632 -70.33572,-31.04536 -185.67594,-4.41567 -185.67594,-4.41567 0,0 -71.91979,128.73398 -37.24852,154.38614 34.67129,25.65214 229.51407,55.51115 243.19329,-32.33847 z"
       style="fill:#000000;stroke:none" />
    <path
       style="fill:#666666;fill-opacity:1;stroke:none"
       d="m 1068.842,686.55553 c 0,0 -51.9217,-89.79448 21.0198,-121.99011 72.9416,-32.19555 192.5549,-4.57927 192.5549,-4.57927 0,0 74.5844,133.50341 38.6285,160.10595 -35.9558,26.60252 -238.0172,57.56776 -252.2032,-33.53657 z"
       id="path3018"
       inkscape:connector-curvature="0" />
    <path
       inkscape:connector-curvature="0"
       id="path3020"
       d="m 402.23025,845.78693 c 0,0 49.80182,86.1283 -20.16155,117.00942 -69.96345,30.88105 -184.69322,4.3923 -184.69322,4.3923 0,0 -71.53914,-128.05263 -37.05137,-153.56903 34.48778,-25.51637 228.29932,-55.21734 241.90614,32.16731 z"
       style="fill:#666666;fill-opacity:1;stroke:none" />
    <path
       style="fill:#000000;stroke:none"
       d="m 467.95547,845.25955 c 0,0 -49.35228,85.35085 19.97956,115.95323 69.33194,30.6023 183.02609,4.35265 183.02609,4.35265 0,0 70.8934,-126.89677 36.71693,-152.18284 -34.17648,-25.28604 -226.23858,-54.71892 -239.72258,31.87696 z"
       id="path3022"
       inkscape:connector-curvature="0" />
    <path
       style="fill:#666666;fill-opacity:1;stroke:none"
       d="m 1011.275,924.08379 c 0,0 51.5943,-89.22818 -20.88716,-121.22076 -72.48155,-31.99251 -191.34061,-4.55039 -191.34061,-4.55039 0,0 -74.11394,132.66144 -38.3849,159.09621 35.72905,26.43474 236.51615,57.20465 250.61267,-33.32506 z"
       id="path3024"
       inkscape:connector-curvature="0" />
    <path
       inkscape:connector-curvature="0"
       id="path3026"
       d="m 1068.2133,920.123 c 0,0 -50.0996,-86.6433 20.2821,-117.70908 70.3818,-31.0657 185.7976,-4.41856 185.7976,-4.41856 0,0 71.9669,128.81833 37.2728,154.4873 -34.6939,25.66894 -229.6644,55.54754 -243.3525,-32.35966 z"
       style="fill:#000000;stroke:none" />
  </g>
</svg>
